<svg width="101" height="54" viewBox="0 0 101 54" fill="none" xmlns="http://www.w3.org/2000/svg">
<g clip-path="url(#clip0_1_3)">
<path d="M103 0H-19V54H103V0Z" fill="none"/>
<path d="M42.4961 15.686C43.6055 16.81 44.1602 18.4294 44.1602 20.544V29.7837H41.7501V20.906C41.7501 19.3819 41.3866 18.2198 40.6502 17.4101C39.9138 16.6005 38.9191 16.2004 37.6471 16.2004C36.3655 16.2004 35.3421 16.6195 34.577 17.4578C33.8214 18.296 33.4389 19.5057 33.4389 21.106V29.7933H31V14H33.4389V16.4481C33.9171 15.667 34.577 15.0669 35.4091 14.6382C36.2411 14.2096 37.1497 14 38.154 14C39.9425 14 41.3866 14.562 42.4961 15.686Z" fill="black"/>
<path d="M47.9086 17.7435C48.5111 16.5624 49.3528 15.6479 50.4144 15.0002C51.476 14.3524 52.662 14.0286 53.9627 14.0286C55.2443 14.0286 56.3633 14.3143 57.3101 14.8954C58.257 15.4669 58.9647 16.1909 59.4238 17.0672V14H61.8913V29.7837H59.4238V26.6975C58.9456 27.5929 58.2187 28.3263 57.2719 28.9074C56.3155 29.4884 55.206 29.7837 53.934 29.7837C52.6333 29.7837 51.4569 29.4503 50.3953 28.7836C49.3432 28.1168 48.5111 27.1737 47.9086 25.9735C47.3061 24.7638 47 23.3921 47 21.849C47 20.2868 47.2965 18.9247 47.9086 17.7435ZM58.7543 18.8675C58.3048 18.0102 57.7023 17.3625 56.9467 16.9053C56.1911 16.4481 55.3495 16.2194 54.4409 16.2194C53.5323 16.2194 52.7002 16.4385 51.9542 16.8862C51.2082 17.3339 50.6057 17.9817 50.1562 18.8389C49.7066 19.6962 49.4867 20.6964 49.4867 21.849C49.4867 23.0206 49.7066 24.0303 50.1562 24.8972C50.6057 25.764 51.1987 26.4212 51.9542 26.8785C52.7002 27.3357 53.5323 27.5643 54.4409 27.5643C55.3495 27.5643 56.1816 27.3357 56.9467 26.8785C57.7023 26.4212 58.3048 25.764 58.7543 24.8972C59.2038 24.0303 59.4238 23.0302 59.4238 21.8776C59.4238 20.725 59.1943 19.7248 58.7543 18.8675Z" fill="black"/>
<path d="M69.6021 14.8693C70.5585 14.2882 71.6679 13.9929 72.9399 13.9929C74.2407 13.9929 75.4266 14.3168 76.4882 14.9645C77.5499 15.6123 78.3819 16.5267 78.994 17.7079C79.5966 18.889 79.9026 20.2512 79.9026 21.8134C79.9026 23.3565 79.5966 24.7282 78.994 25.9379C78.3915 27.1476 77.5499 28.0811 76.4882 28.7479C75.4266 29.4147 74.2407 29.7481 72.9399 29.7481C71.687 29.7481 70.5872 29.4528 69.6308 28.8718C68.6744 28.2907 67.9475 27.5572 67.4501 26.6904V40.0452H65.0113V13.9644H67.4501V17.0506C67.9284 16.1838 68.6457 15.4503 69.6021 14.8693ZM76.7369 18.8033C76.2874 17.946 75.6849 17.2983 74.9293 16.8506C74.1737 16.4029 73.3321 16.1838 72.4235 16.1838C71.534 16.1838 70.7019 16.4124 69.9464 16.8696C69.1908 17.3269 68.5787 17.9841 68.1292 18.8509C67.6701 19.7178 67.4501 20.7084 67.4501 21.8419C67.4501 22.9945 67.6797 24.0042 68.1292 24.8615C68.5883 25.7283 69.1908 26.3856 69.9464 26.8428C70.7019 27.3001 71.534 27.5287 72.4235 27.5287C73.3321 27.5287 74.1642 27.3001 74.9293 26.8428C75.6849 26.3856 76.2874 25.7283 76.7369 24.8615C77.1864 23.9947 77.4064 22.985 77.4064 21.8134C77.4064 20.6608 77.1769 19.6606 76.7369 18.8033Z" fill="black"/>
<path d="M83.8717 29.2433C83.5657 28.9003 83.4127 28.4907 83.4127 27.9954C83.4127 27.5096 83.5657 27.0905 83.8717 26.7476C84.1778 26.4047 84.5412 26.2427 84.9812 26.2427C85.402 26.2427 85.7559 26.4142 86.0524 26.7476C86.3489 27.0905 86.4923 27.5001 86.4923 27.9954C86.4923 28.4812 86.3489 28.9003 86.0524 29.2433C85.7559 29.5862 85.402 29.7481 84.9812 29.7481C84.5412 29.7481 84.1682 29.5766 83.8717 29.2433ZM85.9759 13.9644V24.671H83.9387V13.9644H85.9759Z" fill="black"/>
<path d="M24.7789 28.3849L14.7844 22.6411C13.7515 22.0409 13.7515 20.555 14.7844 19.9549L24.7789 14.211C25.8119 13.6109 27.1126 14.3634 27.1126 15.5541V27.0514C27.1126 28.242 25.8119 28.985 24.7789 28.3849Z" fill="#5AB5FF"/>
<path d="M24.7788 39.8631L14.7843 34.1193C13.7513 33.5192 13.7513 32.0332 14.7843 31.4331L24.7788 25.6892C25.8117 25.0891 27.1124 25.8416 27.1124 27.0323V38.5296C27.1124 39.7203 25.8117 40.4632 24.7788 39.8631Z" fill="#FFFB73"/>
<path d="M16.3336 19.9453L26.3282 25.6892C27.3611 26.2893 27.3611 27.7753 26.3282 28.3754L16.3336 34.1193C15.3007 34.7194 14 33.9669 14 32.7762V21.2884C14 20.0977 15.3007 19.3548 16.3336 19.9453Z" fill="#FF5A5A"/>
<path d="M30.7528 40V39.3608L33.1534 36.733C33.4351 36.4252 33.6671 36.1577 33.8494 35.9304C34.0317 35.7008 34.1667 35.4853 34.2543 35.2841C34.3442 35.0805 34.3892 34.8674 34.3892 34.6449C34.3892 34.3892 34.3277 34.1679 34.2045 33.9808C34.0838 33.7938 33.9181 33.6494 33.7074 33.5476C33.4967 33.4458 33.2599 33.3949 32.9972 33.3949C32.7178 33.3949 32.474 33.4529 32.2656 33.5689C32.0597 33.6825 31.8999 33.8423 31.7862 34.0483C31.675 34.2543 31.6193 34.4957 31.6193 34.7727H30.7812C30.7812 34.3466 30.8795 33.9725 31.076 33.6506C31.2725 33.3286 31.54 33.0777 31.8786 32.8977C32.2195 32.7178 32.6018 32.6278 33.0256 32.6278C33.4517 32.6278 33.8293 32.7178 34.1584 32.8977C34.4875 33.0777 34.7455 33.3203 34.9325 33.6257C35.1196 33.9311 35.2131 34.2708 35.2131 34.6449C35.2131 34.9124 35.1645 35.174 35.0675 35.4297C34.9728 35.683 34.8071 35.9659 34.5703 36.2784C34.3359 36.5885 34.0104 36.9673 33.5938 37.4148L31.9602 39.1619V39.2188H35.3409V40H30.7528ZM41.7797 40.0994C41.2447 40.0994 40.7889 39.9538 40.4125 39.6626C40.0361 39.3691 39.7484 38.9441 39.5496 38.3878C39.3507 37.8291 39.2513 37.1544 39.2513 36.3636C39.2513 35.5777 39.3507 34.9065 39.5496 34.3501C39.7508 33.7914 40.0396 33.3653 40.4161 33.0717C40.7948 32.7758 41.2494 32.6278 41.7797 32.6278C42.31 32.6278 42.7634 32.7758 43.1398 33.0717C43.5186 33.3653 43.8074 33.7914 44.0063 34.3501C44.2075 34.9065 44.3081 35.5777 44.3081 36.3636C44.3081 37.1544 44.2087 37.8291 44.0098 38.3878C43.8109 38.9441 43.5233 39.3691 43.1469 39.6626C42.7705 39.9538 42.3147 40.0994 41.7797 40.0994ZM41.7797 39.3182C42.31 39.3182 42.7219 39.0625 43.0155 38.5511C43.309 38.0398 43.4558 37.3106 43.4558 36.3636C43.4558 35.7339 43.3884 35.1977 43.2534 34.755C43.1208 34.3123 42.9291 33.9749 42.6781 33.7429C42.4295 33.5109 42.1301 33.3949 41.7797 33.3949C41.2541 33.3949 40.8434 33.6541 40.5474 34.1726C40.2515 34.6887 40.1036 35.419 40.1036 36.3636C40.1036 36.9934 40.1698 37.5284 40.3024 37.9688C40.435 38.4091 40.6256 38.7441 40.8741 38.9737C41.1251 39.2034 41.4269 39.3182 41.7797 39.3182ZM48.2575 40V39.3608L50.6581 36.733C50.9398 36.4252 51.1718 36.1577 51.3541 35.9304C51.5364 35.7008 51.6714 35.4853 51.7589 35.2841C51.8489 35.0805 51.8939 34.8674 51.8939 34.6449C51.8939 34.3892 51.8323 34.1679 51.7092 33.9808C51.5885 33.7938 51.4228 33.6494 51.2121 33.5476C51.0014 33.4458 50.7646 33.3949 50.5018 33.3949C50.2225 33.3949 49.9786 33.4529 49.7703 33.5689C49.5643 33.6825 49.4045 33.8423 49.2909 34.0483C49.1796 34.2543 49.124 34.4957 49.124 34.7727H48.2859C48.2859 34.3466 48.3842 33.9725 48.5807 33.6506C48.7772 33.3286 49.0447 33.0777 49.3832 32.8977C49.7241 32.7178 50.1065 32.6278 50.5303 32.6278C50.9564 32.6278 51.334 32.7178 51.6631 32.8977C51.9921 33.0777 52.2502 33.3203 52.4372 33.6257C52.6242 33.9311 52.7178 34.2708 52.7178 34.6449C52.7178 34.9124 52.6692 35.174 52.5722 35.4297C52.4775 35.683 52.3117 35.9659 52.075 36.2784C51.8406 36.5885 51.5151 36.9673 51.0984 37.4148L49.4649 39.1619V39.2188H52.8456V40H48.2575ZM56.5855 38.5085V37.7841L59.7815 32.7273H60.3071V33.8494H59.952L57.5372 37.6705V37.7273H61.8412V38.5085H56.5855ZM60.0088 40V38.2884V37.951V32.7273H60.8469V40H60.0088Z" fill="black"/>
<path d="M70.7528 40V39.3608L73.1534 36.733C73.4351 36.4252 73.6671 36.1577 73.8494 35.9304C74.0317 35.7008 74.1667 35.4853 74.2543 35.2841C74.3442 35.0805 74.3892 34.8674 74.3892 34.6449C74.3892 34.3892 74.3277 34.1679 74.2045 33.9808C74.0838 33.7938 73.9181 33.6494 73.7074 33.5476C73.4967 33.4458 73.2599 33.3949 72.9972 33.3949C72.7178 33.3949 72.474 33.4529 72.2656 33.5689C72.0597 33.6825 71.8999 33.8423 71.7862 34.0483C71.675 34.2543 71.6193 34.4957 71.6193 34.7727H70.7812C70.7812 34.3466 70.8795 33.9725 71.076 33.6506C71.2725 33.3286 71.54 33.0777 71.8786 32.8977C72.2195 32.7178 72.6018 32.6278 73.0256 32.6278C73.4517 32.6278 73.8293 32.7178 74.1584 32.8977C74.4875 33.0777 74.7455 33.3203 74.9325 33.6257C75.1196 33.9311 75.2131 34.2708 75.2131 34.6449C75.2131 34.9124 75.1645 35.174 75.0675 35.4297C74.9728 35.683 74.8071 35.9659 74.5703 36.2784C74.3359 36.5885 74.0104 36.9673 73.5938 37.4148L71.9602 39.1619V39.2188H75.3409V40H70.7528ZM81.6803 40.0994C81.2636 40.0994 80.8884 40.0166 80.5545 39.8509C80.2207 39.6851 79.9532 39.4579 79.752 39.169C79.5508 38.8802 79.4407 38.5511 79.4217 38.1818H80.274C80.3072 38.5109 80.4563 38.7831 80.7214 38.9986C80.989 39.2116 81.3086 39.3182 81.6803 39.3182C81.9786 39.3182 82.2437 39.2483 82.4757 39.1087C82.7101 38.969 82.8936 38.7772 83.0261 38.5334C83.1611 38.2872 83.2286 38.009 83.2286 37.6989C83.2286 37.3816 83.1587 37.0987 83.019 36.8501C82.8817 36.5992 82.6923 36.4015 82.4509 36.2571C82.2094 36.1127 81.9336 36.0393 81.6234 36.0369C81.4009 36.0346 81.1724 36.0689 80.9381 36.1399C80.7037 36.2086 80.5107 36.2973 80.3592 36.4062L79.5354 36.3068L79.9757 32.7273H83.7541V33.5085H80.7143L80.4587 35.6534H80.5013C80.6504 35.535 80.8375 35.4368 81.0624 35.3587C81.2873 35.2805 81.5216 35.2415 81.7655 35.2415C82.2106 35.2415 82.6071 35.348 82.9551 35.5611C83.3055 35.7718 83.5801 36.0606 83.779 36.4276C83.9802 36.7945 84.0808 37.2135 84.0808 37.6847C84.0808 38.1487 83.9767 38.563 83.7683 38.9276C83.5624 39.2898 83.2783 39.5762 82.9161 39.7869C82.5538 39.9953 82.1419 40.0994 81.6803 40.0994Z" fill="black"/>
</g>
<defs>
<clipPath id="clip0_1_3">
<rect width="101" height="54" fill="none"/>
</clipPath>
</defs>
</svg>
