<svg width="54" height="54" viewBox="0 0 54 54" fill="none" xmlns="http://www.w3.org/2000/svg">
<path d="M34.0846 29.1346L17.316 19.4978C15.5831 18.4908 15.5831 15.9978 17.316 14.991L34.0846 5.354C35.8177 4.34716 38 5.60969 38 7.60742V26.8973C38 28.8949 35.8177 30.1415 34.0846 29.1346Z" fill="#5AB5FF"/>
<path d="M34.0844 48.3925L17.3159 38.7557C15.5827 37.7488 15.5827 35.2557 17.3159 34.2488L34.0844 24.6118C35.8174 23.605 37.9997 24.8675 37.9997 26.8653V46.1552C37.9997 48.1529 35.8174 49.3993 34.0844 48.3925Z" fill="#FFFB73"/>
<path d="M19.9153 14.9749L36.684 24.6118C38.4169 25.6187 38.4169 28.1119 36.684 29.1187L19.9153 38.7557C18.1823 39.7625 16 38.5 16 36.5022V17.2283C16 15.2306 18.1823 13.9841 19.9153 14.9749Z" fill="#FF5A5A"/>
</svg>
